<svg width="18" height="18" viewBox="0 0 18 18" fill="none" xmlns="http://www.w3.org/2000/svg">
<g clip-path="url(#clip0_2876_1919)">
<path d="M9 0.5625C4.34011 0.5625 0.5625 4.34011 0.5625 9C0.5625 13.6599 4.34011 17.4375 9 17.4375C13.6599 17.4375 17.4375 13.6599 17.4375 9C17.4375 4.34011 13.6599 0.5625 9 0.5625ZM14.1707 14.1707C12.8886 15.449 11.1764 16.2042 9.36793 16.2891C7.55942 16.374 5.78407 15.7825 4.38783 14.63C2.99158 13.4774 2.07445 11.8463 1.81515 10.0544C1.55584 8.26258 1.97294 6.43838 2.98516 4.93726C3.99738 3.43615 5.53222 2.36566 7.2906 1.93438C9.04899 1.50309 10.905 1.74191 12.4969 2.6043C14.0888 3.46669 15.3026 4.89087 15.9019 6.59934C16.5011 8.30781 16.4428 10.1782 15.7383 11.846C15.3711 12.7151 14.8388 13.5046 14.1707 14.1707Z" fill="#FAFAFA"/>
<path d="M4.5 6.75H5.90625V8.15625H4.5V6.75Z" fill="#FAFAFA"/>
<path d="M11.8125 6.75H13.2188V8.15625H11.8125V6.75Z" fill="#FAFAFA"/>
<path d="M8.15625 10.7911C8.15624 10.7746 8.15854 10.7582 8.16307 10.7424L9.28125 6.82879V5.90625H8.15625V6.67121L7.08138 10.4333C7.02598 10.6271 7.01635 10.8312 7.05323 11.0294C7.09011 11.2276 7.1725 11.4146 7.29391 11.5755C7.41532 11.7365 7.57245 11.8671 7.75291 11.957C7.93336 12.0469 8.13223 12.0937 8.33386 12.0938H10.4062V10.9688H8.33386C8.28677 10.9687 8.24162 10.95 8.20832 10.9167C8.17502 10.8834 8.15629 10.8382 8.15625 10.7911Z" fill="#FAFAFA"/>
</g>
<defs>
<clipPath id="clip0_2876_1919">
<rect width="18" height="18" fill="white"/>
</clipPath>
</defs>
</svg>
