<svg width="24" height="24" viewBox="0 0 24 24" fill="none" xmlns="http://www.w3.org/2000/svg">
<g clip-path="url(#clip0_1_11)">
<path d="M16.2455 13.3C17.4909 14.1455 18.3636 15.2909 18.3636 16.8182V19.5455H22V16.8182C22 14.8364 18.7545 13.6636 16.2455 13.3Z" fill="#F8F8F8"/>
<path d="M14.7273 12.2727C16.7364 12.2727 18.3636 10.6455 18.3636 8.63636C18.3636 6.62727 16.7364 5 14.7273 5C14.3 5 13.9 5.09091 13.5182 5.21818C14.2727 6.15455 14.7273 7.34545 14.7273 8.63636C14.7273 9.92727 14.2727 11.1182 13.5182 12.0545C13.9 12.1818 14.3 12.2727 14.7273 12.2727Z" fill="#F8F8F8"/>
<path d="M9.27273 12.2727C11.2818 12.2727 12.9091 10.6455 12.9091 8.63636C12.9091 6.62727 11.2818 5 9.27273 5C7.26364 5 5.63637 6.62727 5.63637 8.63636C5.63637 10.6455 7.26364 12.2727 9.27273 12.2727ZM9.27273 6.81818C10.2727 6.81818 11.0909 7.63636 11.0909 8.63636C11.0909 9.63636 10.2727 10.4545 9.27273 10.4545C8.27273 10.4545 7.45455 9.63636 7.45455 8.63636C7.45455 7.63636 8.27273 6.81818 9.27273 6.81818Z" fill="#F8F8F8"/>
<path d="M9.27273 13.1818C6.84545 13.1818 2 14.4 2 16.8182V19.5455H16.5455V16.8182C16.5455 14.4 11.7 13.1818 9.27273 13.1818ZM14.7273 17.7273H3.81818V16.8273C4 16.1727 6.81818 15 9.27273 15C11.7273 15 14.5455 16.1727 14.7273 16.8182V17.7273Z" fill="#F8F8F8"/>
</g>
<defs>
<clipPath id="clip0_1_11">
<rect width="20" height="14.5455" fill="white" transform="translate(2 5)"/>
</clipPath>
</defs>
</svg>
