<svg width="24" height="24" viewBox="0 0 24 24" fill="none" xmlns="http://www.w3.org/2000/svg">
<g clip-path="url(#clip0_1_12)">
<path d="M20.9063 18.0937H19.0313V16.2187C19.0313 16.1156 18.9469 16.0312 18.8438 16.0312H17.7188C17.6157 16.0312 17.5313 16.1156 17.5313 16.2187V18.0937H15.6563C15.5532 18.0937 15.4688 18.1781 15.4688 18.2812V19.4062C15.4688 19.5093 15.5532 19.5937 15.6563 19.5937H17.5313V21.4687C17.5313 21.5718 17.6157 21.6562 17.7188 21.6562H18.8438C18.9469 21.6562 19.0313 21.5718 19.0313 21.4687V19.5937H20.9063C21.0094 19.5937 21.0938 19.5093 21.0938 19.4062V18.2812C21.0938 18.1781 21.0094 18.0937 20.9063 18.0937ZM8.75394 11.6812C8.73285 11.4773 8.72113 11.271 8.72113 11.0624C8.72113 10.6898 8.75628 10.3265 8.82191 9.9726C8.83832 9.88822 8.79378 9.8015 8.71644 9.76635C8.39769 9.62338 8.10472 9.4265 7.8516 9.17806C7.55333 8.88886 7.31862 8.54066 7.16245 8.15568C7.00628 7.7707 6.93207 7.35739 6.94456 6.94213C6.96566 6.18978 7.268 5.47494 7.79535 4.93588C8.37425 4.34291 9.15238 4.01947 9.97972 4.02885C10.7274 4.03588 11.4492 4.32416 11.9953 4.8351C12.1805 5.00853 12.3399 5.20072 12.4735 5.40697C12.5203 5.47963 12.6118 5.5101 12.6914 5.48197C13.1039 5.339 13.5399 5.23822 13.9875 5.19135C14.1188 5.17728 14.1938 5.03666 14.1352 4.91947C13.3735 3.41244 11.8172 2.37181 10.0172 2.34369C7.42035 2.30385 5.25472 4.43431 5.25472 7.03119C5.25472 8.50306 5.93207 9.81556 6.99378 10.6757C6.24847 11.0203 5.56175 11.496 4.96644 12.0913C3.68207 13.3734 2.9555 15.0656 2.90863 16.8726C2.908 16.8976 2.91239 16.9225 2.92153 16.9458C2.93068 16.9691 2.94439 16.9903 2.96186 17.0082C2.97933 17.0261 3.00022 17.0404 3.02328 17.0501C3.04633 17.0598 3.07111 17.0648 3.09613 17.0648H4.41097C4.51175 17.0648 4.59613 16.9851 4.59847 16.8843C4.643 15.5249 5.19378 14.2523 6.16175 13.2867C6.85082 12.5976 7.69457 12.1195 8.61566 11.8874C8.70472 11.8617 8.76566 11.7749 8.75394 11.6812ZM19.3125 11.0624C19.3125 8.49838 17.2524 6.41478 14.6977 6.37494C12.1008 6.3351 9.93753 8.46556 9.93753 11.0624C9.93753 12.5343 10.6172 13.8468 11.6766 14.707C10.9236 15.056 10.238 15.5353 9.6516 16.1226C8.36722 17.4046 7.64066 19.0968 7.59378 20.9015C7.59316 20.9265 7.59755 20.9514 7.60669 20.9747C7.61583 20.998 7.62954 21.0192 7.64702 21.0371C7.66449 21.055 7.68537 21.0693 7.70843 21.079C7.73149 21.0887 7.75626 21.0937 7.78128 21.0937H9.09378C9.19457 21.0937 9.27894 21.014 9.28128 20.9132C9.32582 19.5538 9.8766 18.2812 10.8446 17.3156C11.8547 16.3054 13.1953 15.7499 14.625 15.7499C17.2125 15.7499 19.3125 13.6523 19.3125 11.0624ZM16.7461 13.1835C16.1789 13.7507 15.4266 14.0624 14.625 14.0624C13.8235 14.0624 13.0711 13.7507 12.5039 13.1835C12.2209 12.902 11.9973 12.5665 11.8463 12.1969C11.6953 11.8273 11.6201 11.4312 11.625 11.032C11.6321 10.2632 11.9391 9.52025 12.4758 8.96947C13.0383 8.39291 13.7907 8.07181 14.5946 8.06244C15.3891 8.05541 16.1602 8.36478 16.7274 8.92025C17.3086 9.48978 17.6274 10.2515 17.6274 11.0624C17.625 11.864 17.3133 12.6163 16.7461 13.1835Z" fill="#F8F8F8"/>
</g>
<defs>
<clipPath id="clip0_1_12">
<rect width="20" height="20" fill="white" transform="translate(2 2)"/>
</clipPath>
</defs>
</svg>
