<svg width="20" height="20" viewBox="0 0 20 20" fill="none" xmlns="http://www.w3.org/2000/svg">
<path d="M18.9063 16.0937H17.0313V14.2187C17.0313 14.1156 16.9469 14.0312 16.8438 14.0312H15.7188C15.6157 14.0312 15.5313 14.1156 15.5313 14.2187V16.0937H13.6563C13.5532 16.0937 13.4688 16.1781 13.4688 16.2812V17.4062C13.4688 17.5093 13.5532 17.5937 13.6563 17.5937H15.5313V19.4687C15.5313 19.5718 15.6157 19.6562 15.7188 19.6562H16.8438C16.9469 19.6562 17.0313 19.5718 17.0313 19.4687V17.5937H18.9063C19.0094 17.5937 19.0938 17.5093 19.0938 17.4062V16.2812C19.0938 16.1781 19.0094 16.0937 18.9063 16.0937ZM6.75394 9.68119C6.73285 9.47728 6.72113 9.27103 6.72113 9.06244C6.72113 8.68978 6.75628 8.3265 6.82191 7.9726C6.83832 7.88822 6.79378 7.8015 6.71644 7.76635C6.39769 7.62338 6.10472 7.4265 5.8516 7.17806C5.55333 6.88886 5.31862 6.54066 5.16245 6.15568C5.00628 5.7707 4.93207 5.35739 4.94456 4.94213C4.96566 4.18978 5.268 3.47494 5.79535 2.93588C6.37425 2.34291 7.15238 2.01947 7.97972 2.02885C8.72738 2.03588 9.44925 2.32416 9.99535 2.8351C10.1805 3.00853 10.3399 3.20072 10.4735 3.40697C10.5203 3.47963 10.6118 3.5101 10.6914 3.48197C11.1039 3.339 11.5399 3.23822 11.9875 3.19135C12.1188 3.17728 12.1938 3.03666 12.1352 2.91947C11.3735 1.41244 9.81722 0.371815 8.01722 0.34369C5.42035 0.303846 3.25472 2.43431 3.25472 5.03119C3.25472 6.50306 3.93207 7.81556 4.99378 8.67572C4.24847 9.02025 3.56175 9.49603 2.96644 10.0913C1.68207 11.3734 0.955503 13.0656 0.908628 14.8726C0.908002 14.8976 0.91239 14.9225 0.921532 14.9458C0.930675 14.9691 0.944387 14.9903 0.96186 15.0082C0.979334 15.0261 1.00022 15.0404 1.02328 15.0501C1.04633 15.0598 1.07111 15.0648 1.09613 15.0648H2.41097C2.51175 15.0648 2.59613 14.9851 2.59847 14.8843C2.643 13.5249 3.19378 12.2523 4.16175 11.2867C4.85082 10.5976 5.69457 10.1195 6.61566 9.88744C6.70472 9.86166 6.76566 9.77494 6.75394 9.68119ZM17.3125 9.06244C17.3125 6.49838 15.2524 4.41478 12.6977 4.37494C10.1008 4.3351 7.93753 6.46556 7.93753 9.06244C7.93753 10.5343 8.61722 11.8468 9.6766 12.707C8.92356 13.056 8.23805 13.5353 7.6516 14.1226C6.36722 15.4046 5.64066 17.0968 5.59378 18.9015C5.59316 18.9265 5.59755 18.9514 5.60669 18.9747C5.61583 18.998 5.62954 19.0192 5.64702 19.0371C5.66449 19.055 5.68537 19.0693 5.70843 19.079C5.73149 19.0887 5.75626 19.0937 5.78128 19.0937H7.09378C7.19457 19.0937 7.27894 19.014 7.28128 18.9132C7.32582 17.5538 7.8766 16.2812 8.84457 15.3156C9.85472 14.3054 11.1953 13.7499 12.625 13.7499C15.2125 13.7499 17.3125 11.6523 17.3125 9.06244ZM14.7461 11.1835C14.1789 11.7507 13.4266 12.0624 12.625 12.0624C11.8235 12.0624 11.0711 11.7507 10.5039 11.1835C10.2209 10.902 9.99727 10.5665 9.8463 10.1969C9.69532 9.8273 9.62008 9.43117 9.62503 9.03197C9.63207 8.26322 9.9391 7.52025 10.4758 6.96947C11.0383 6.39291 11.7907 6.07181 12.5946 6.06244C13.3891 6.05541 14.1602 6.36478 14.7274 6.92025C15.3086 7.48978 15.6274 8.2515 15.6274 9.06244C15.625 9.864 15.3133 10.6163 14.7461 11.1835Z" fill="#F8F8F8"/>
</svg>
