<svg width="24" height="24" viewBox="0 0 24 24" fill="none" xmlns="http://www.w3.org/2000/svg">
<g clip-path="url(#clip0_1_40)">
<path d="M17.7639 4.74377C18.017 4.74377 18.2222 4.51342 18.2222 4.22931V2.51446C18.2222 2.23035 18.017 2 17.7639 2H6.45833C6.20522 2 6 2.23035 6 2.51446V4.43287C6 4.71697 6.20522 4.94732 6.45833 4.94732H9.71556C10.7586 4.94732 11.5589 5.37423 12.0443 6.11564H6.45833C6.20522 6.11564 6 6.346 6 6.6301V8.34496C6 8.62907 6.20522 8.85941 6.45833 8.85941H12.522C12.2845 10.4065 11.263 11.373 9.66667 11.373H6.45833C6.20522 11.373 6 11.6034 6 11.8875V14.1602C6 14.3038 6.05347 14.4408 6.14747 14.5382L12.4515 21.0699C12.5362 21.1577 12.6472 21.2063 12.7624 21.2063H15.9158C16.333 21.2063 16.5333 20.6316 16.2267 20.3139L10.4638 14.3429C13.3857 14.2426 15.4728 12.0538 15.7468 8.85941H17.7639C18.017 8.85941 18.2222 8.62907 18.2222 8.34496V6.6301C18.2222 6.346 18.017 6.11564 17.7639 6.11564H15.5223C15.3891 5.62087 15.206 5.16193 14.9779 4.74377H17.7639Z" fill="#F8F8F8"/>
</g>
<defs>
<clipPath id="clip0_1_40">
<rect width="12.2222" height="20" fill="white" transform="translate(6 2)"/>
</clipPath>
</defs>
</svg>
