<svg width="11" height="18" viewBox="0 0 11 18" fill="none" xmlns="http://www.w3.org/2000/svg">
<path d="M10.5875 2.46939C10.8153 2.46939 11 2.26208 11 2.00638V0.46301C11 0.207313 10.8153 0 10.5875 0H0.4125C0.184697 0 0 0.207313 0 0.46301V2.18958C0 2.44527 0.184697 2.65259 0.4125 2.65259H3.344C4.28271 2.65259 5.00297 3.03681 5.43984 3.70408H0.4125C0.184697 3.70408 0 3.9114 0 4.16709V5.71046C0 5.96616 0.184697 6.17347 0.4125 6.17347H5.86977C5.65606 7.56582 4.73674 8.43574 3.3 8.43574H0.4125C0.184697 8.43574 0 8.64305 0 8.89875V10.9442C0 11.0734 0.048125 11.1967 0.132722 11.2844L5.80638 17.1629C5.88258 17.2419 5.98247 17.2857 6.08616 17.2857H8.92423C9.29974 17.2857 9.47994 16.7684 9.20401 16.4825L4.01744 11.1086C6.64709 11.0183 8.52552 9.04842 8.77212 6.17347H10.5875C10.8153 6.17347 11 5.96616 11 5.71046V4.16709C11 3.9114 10.8153 3.70408 10.5875 3.70408H8.57003C8.4502 3.25878 8.28541 2.84574 8.08012 2.46939H10.5875Z" fill="#F8F8F8"/>
</svg>
