<svg width="30" height="40" viewBox="0 0 30 40" fill="none" xmlns="http://www.w3.org/2000/svg">
<path d="M17.5 10.625V0H1.875C0.835937 0 0 0.835937 0 1.875V38.125C0 39.1641 0.835937 40 1.875 40H28.125C29.1641 40 30 39.1641 30 38.125V12.5H19.375C18.3438 12.5 17.5 11.6562 17.5 10.625ZM22.5922 27.5008H17.5V33.7508C17.5 34.4414 16.9406 35.0008 16.25 35.0008H13.75C13.0594 35.0008 12.5 34.4414 12.5 33.7508V27.5008H7.40781C6.29219 27.5008 5.73516 26.15 6.52734 25.3633L14.0602 17.8867C14.5797 17.3703 15.4187 17.3703 15.9383 17.8867L23.4711 25.3633C24.2641 26.15 23.7078 27.5008 22.5922 27.5008ZM29.4531 8.20312L21.8047 0.546875C21.4531 0.195312 20.9766 0 20.4766 0H20V10H30V9.52344C30 9.03125 29.8047 8.55469 29.4531 8.20312Z" fill="#6C6C6C"/>
</svg>
