<svg width="13" height="16" viewBox="0 0 13 16" fill="none" xmlns="http://www.w3.org/2000/svg">
<path d="M6.335 15.4416C7.20606 15.4416 7.91875 14.7289 7.91875 13.8578H4.75125C4.75125 14.7289 5.46394 15.4416 6.335 15.4416ZM11.0863 10.6903V6.73094C11.0863 4.29988 9.79549 2.26476 7.52281 1.72629V1.18781C7.52281 0.530556 6.99226 0 6.335 0C5.67774 0 5.14719 0.530556 5.14719 1.18781V1.72629C2.88243 2.26476 1.58375 4.29196 1.58375 6.73094V10.6903L0 12.2741V13.0659H12.67V12.2741L11.0863 10.6903ZM9.5025 11.4822H3.1675V6.73094C3.1675 4.76709 4.36323 3.1675 6.335 3.1675C8.30677 3.1675 9.5025 4.76709 9.5025 6.73094V11.4822Z" fill="#323232"/>
</svg>
