<svg width="14" height="15" viewBox="0 0 14 15" fill="none" xmlns="http://www.w3.org/2000/svg">
<path d="M2.78625 2.31367C2.83208 2.99342 2.94664 3.6579 3.12995 4.29182L2.21343 5.20834C1.90028 4.29182 1.7017 3.32184 1.63297 2.31367H2.78625ZM10.317 11.4941C10.9662 11.6774 11.6307 11.792 12.3028 11.8378V12.9758C11.2946 12.9071 10.3246 12.7085 9.40047 12.403L10.317 11.4941ZM3.51947 0.786133H0.846286C0.426215 0.786133 0.0825195 1.12983 0.0825195 1.5499C0.0825195 8.72167 5.89478 14.5339 13.0666 14.5339C13.4866 14.5339 13.8303 14.1902 13.8303 13.7702V11.1046C13.8303 10.6845 13.4866 10.3409 13.0666 10.3409C12.1195 10.3409 11.1953 10.1881 10.3399 9.90551C10.2635 9.87496 10.1795 9.86732 10.1031 9.86732C9.90456 9.86732 9.71362 9.9437 9.56086 10.0888L7.88058 11.7691C5.71912 10.6616 3.94718 8.89733 2.84735 6.73588L4.52764 5.05559C4.7415 4.84173 4.8026 4.54386 4.71858 4.27655C4.43599 3.42113 4.28324 2.50461 4.28324 1.5499C4.28324 1.12983 3.93954 0.786133 3.51947 0.786133Z" fill="#FAFAFA"/>
</svg>
