<svg width="24" height="24" viewBox="0 0 24 24" fill="none" xmlns="http://www.w3.org/2000/svg">
<path fill-rule="evenodd" clip-rule="evenodd" d="M17.3973 5.84934C16.8659 5.84934 16.435 6.28018 16.435 6.81167C16.435 7.34317 16.8659 7.77401 17.3973 7.77401C17.9288 7.77401 18.3597 7.34317 18.3597 6.81167C18.3597 6.28018 17.9288 5.84934 17.3973 5.84934ZM15.4727 6.81167C15.4727 5.74873 16.3344 4.887 17.3973 4.887C18.4603 4.887 19.322 5.74873 19.322 6.81167C19.322 7.87462 18.4603 8.73634 17.3973 8.73634C16.3344 8.73634 15.4727 7.87462 15.4727 6.81167Z" fill="#F8F8F8"/>
<path fill-rule="evenodd" clip-rule="evenodd" d="M14.3455 9.27809C14.6194 8.93569 15.0341 8.73634 15.4727 8.73634H18.3597C18.397 8.73634 18.434 8.73778 18.4707 8.74057H19.7505C19.9728 8.74057 20.2193 8.83041 20.4328 8.94242C20.6613 9.06228 20.9083 9.23709 21.137 9.4656C21.5969 9.92506 22 10.6207 22 11.5364C22 12.6629 21.6265 13.4858 21.1645 14.0326C20.9359 14.3032 20.6865 14.5052 20.4523 14.6422C20.3815 14.6836 20.3074 14.7219 20.2317 14.7546V20.2328C20.2317 20.9311 19.6623 21.5005 18.964 21.5005C18.2657 21.5005 17.6963 20.9311 17.6963 20.2328V16.7815H17.0857V20.2328C17.0857 20.9311 16.5163 21.5005 15.818 21.5005C15.1197 21.5005 14.5503 20.9311 14.5503 20.2328V13.6245C14.283 13.8824 13.9243 14.0292 13.548 14.0292H10.661C9.86376 14.0292 9.21751 13.3829 9.21751 12.5857C9.21751 11.7884 9.86376 11.1422 10.661 11.1422H12.8542L14.3455 9.27809ZM15.4727 9.69867C15.3265 9.69867 15.1883 9.76512 15.0969 9.87926L13.3168 12.1045H10.661C10.3953 12.1045 10.1798 12.3199 10.1798 12.5857C10.1798 12.8514 10.3953 13.0668 10.661 13.0668H13.548C13.6942 13.0668 13.8324 13.0004 13.9238 12.8863L15.5127 10.9001V20.2328C15.5127 20.3996 15.6512 20.5381 15.818 20.5381C15.9848 20.5381 16.1234 20.3996 16.1234 20.2328V15.8191H18.6587V20.2328C18.6587 20.3996 18.7972 20.5381 18.964 20.5381C19.1308 20.5381 19.2694 20.3996 19.2694 20.2328V13.9061H19.7505C19.7477 13.9061 19.7486 13.9059 19.753 13.9048C19.7708 13.9005 19.8447 13.8828 19.9663 13.8116C20.1043 13.7309 20.2699 13.6003 20.4293 13.4116C20.7434 13.0399 21.0377 12.4374 21.0377 11.5364C21.0377 10.9239 20.7729 10.4622 20.4568 10.1464C20.2975 9.98728 20.1294 9.86997 19.9858 9.79457C19.8479 9.7223 19.7675 9.70642 19.7527 9.70349C19.7505 9.70305 19.7505 9.70291 19.7505 9.70291H18.428L18.4056 9.70079C18.3906 9.6994 18.3753 9.69867 18.3597 9.69867H15.4727Z" fill="#F8F8F8"/>
<path fill-rule="evenodd" clip-rule="evenodd" d="M2 2H17.8785V4.48282H16.9162V2.96233H2.96233V14.5103H14.0292V15.4727H2V2Z" fill="#F8F8F8"/>
<path fill-rule="evenodd" clip-rule="evenodd" d="M19.2672 14.3299V10.6695H20.2295V14.3299H19.2672Z" fill="#F8F8F8"/>
</svg>
