<svg width="24" height="24" viewBox="0 0 24 24" fill="none" xmlns="http://www.w3.org/2000/svg">
<g clip-path="url(#clip0_1_44)">
<path d="M15.1136 13.5625H14.0483V12.7306C15.1089 12.1157 15.8238 10.9679 15.8238 9.65621V5.21728C15.8238 3.94451 14.7884 2.90904 13.5156 2.90904H7.83377C7.53959 2.90904 7.30109 3.14754 7.30109 3.44171V5.21728C7.30109 6.10958 7.90277 6.86345 8.72155 7.09598V9.65621C8.72155 10.9679 9.4365 12.1157 10.4971 12.7306V13.5625H9.43177C7.17997 13.5625 5.34797 15.3945 5.34797 17.6463V20.5582C5.34797 20.8524 5.58646 21.0909 5.88064 21.0909H18.6647C18.9589 21.0909 19.1974 20.8524 19.1974 20.5582V17.6463C19.1974 15.3945 17.3654 13.5625 15.1136 13.5625ZM8.36644 5.21728V3.97439H13.5156C14.2009 3.97439 14.7585 4.53195 14.7585 5.21728V6.10507H9.25422C8.76469 6.10507 8.36644 5.70681 8.36644 5.21728ZM9.78689 7.17041H14.7585V9.65621C14.7585 11.0269 13.6434 12.142 12.2727 12.142C10.902 12.142 9.78689 11.0269 9.78689 9.65621V7.17041ZM12.2727 13.2074C12.5158 13.2074 12.7534 13.1827 12.9829 13.1359V14.0951C12.9829 14.3893 13.2214 14.6278 13.5156 14.6278H13.9274L12.2727 16.4894L10.618 14.6278H11.0298C11.324 14.6278 11.5625 14.3893 11.5625 14.0951V13.1359C11.792 13.1827 12.0295 13.2074 12.2727 13.2074ZM6.41331 17.6463C6.41331 16.0595 7.64424 14.7558 9.2012 14.6375L11.56 17.2912L9.12947 20.0255H6.41331V17.6463ZM18.1321 20.0255H10.5548L15.3442 14.6375C16.9011 14.7558 18.1321 16.0595 18.1321 17.6463V20.0255Z" fill="#F8F8F8"/>
<path fill-rule="evenodd" clip-rule="evenodd" d="M14.321 13.2897H15.1136C17.516 13.2897 19.4701 15.2438 19.4701 17.6463V20.5582C19.4701 21.003 19.1095 21.3635 18.6647 21.3635H5.88064C5.43584 21.3635 5.07524 21.003 5.07524 20.5582V17.6463C5.07524 15.2438 7.02934 13.2897 9.43177 13.2897H10.2244V12.8839C9.15855 12.2053 8.44882 11.0126 8.44882 9.65621V7.29176C7.61886 6.96855 7.02837 6.16154 7.02837 5.21728V3.44172C7.02837 2.99692 7.38897 2.63632 7.83377 2.63632H13.5156C14.939 2.63632 16.0965 3.7939 16.0965 5.21728V9.65621C16.0965 11.0126 15.3868 12.2053 14.321 12.8839V13.2897ZM14.0483 12.7306C15.1089 12.1157 15.8238 10.9679 15.8238 9.65621V5.21728C15.8238 3.94452 14.7884 2.90905 13.5156 2.90905H7.83377C7.53959 2.90905 7.30109 3.14755 7.30109 3.44172V5.21728C7.30109 6.10958 7.90277 6.86346 8.72155 7.09598V9.65621C8.72155 10.9679 9.4365 12.1157 10.4971 12.7306V13.5625H9.43177C7.17997 13.5625 5.34797 15.3945 5.34797 17.6463V20.5582C5.34797 20.8524 5.58646 21.0909 5.88064 21.0909H18.6647C18.9589 21.0909 19.1974 20.8524 19.1974 20.5582V17.6463C19.1974 15.3945 17.3654 13.5625 15.1136 13.5625H14.0483V12.7306ZM8.63917 4.24712V5.21728C8.63917 5.55618 8.91532 5.83235 9.25422 5.83235H14.4857V5.21728C14.4857 4.68258 14.0503 4.24712 13.5156 4.24712H8.63917ZM14.4857 7.44314H10.0596V9.65621C10.0596 10.8763 11.0526 11.8693 12.2727 11.8693C13.4927 11.8693 14.4857 10.8763 14.4857 9.65621V7.44314ZM12.7102 13.4552C12.5665 13.4716 12.4205 13.4801 12.2727 13.4801C12.1248 13.4801 11.9788 13.4716 11.8352 13.4552V14.0951C11.8352 14.4788 11.5669 14.7998 11.2077 14.8808L12.2727 16.0788L13.3376 14.8808C12.9784 14.7998 12.7102 14.4788 12.7102 14.0951V13.4552ZM12.7102 13.1805C12.5668 13.1982 12.4208 13.2074 12.2727 13.2074C12.1246 13.2074 11.9786 13.1982 11.8352 13.1805C11.7431 13.1691 11.6522 13.1542 11.5625 13.1359V14.0951C11.5625 14.3893 11.324 14.6278 11.0298 14.6278H10.618L12.2727 16.4894L13.9274 14.6278H13.5156C13.2214 14.6278 12.9829 14.3893 12.9829 14.0951V13.1359C12.8932 13.1542 12.8022 13.1691 12.7102 13.1805ZM9.0898 14.9226C7.73678 15.0915 6.68604 16.2486 6.68604 17.6463V19.7528H9.00699L11.1951 17.2912L9.0898 14.9226ZM9.2012 14.6375C7.64424 14.7558 6.41331 16.0595 6.41331 17.6463V20.0255H9.12947L11.56 17.2912L9.2012 14.6375ZM11.1621 19.7528H17.8594V17.6463C17.8594 16.2486 16.8085 15.0915 15.4555 14.9226L11.1621 19.7528ZM10.5548 20.0255L15.3442 14.6375C16.9011 14.7558 18.1321 16.0595 18.1321 17.6463V20.0255H10.5548ZM8.36644 5.21728C8.36644 5.70681 8.76469 6.10508 9.25422 6.10508H14.7585V5.21728C14.7585 4.53196 14.2009 3.97439 13.5156 3.97439H8.36644V5.21728ZM9.78689 7.17041V9.65621C9.78689 11.0269 10.902 12.142 12.2727 12.142C13.6434 12.142 14.7585 11.0269 14.7585 9.65621V7.17041H9.78689Z" fill="#F8F8F8"/>
</g>
<defs>
<clipPath id="clip0_1_44">
<rect width="14.5455" height="20" fill="white" transform="translate(5 2)"/>
</clipPath>
</defs>
</svg>
