<svg width="19" height="21" viewBox="0 0 19 21" fill="none" xmlns="http://www.w3.org/2000/svg">
<path d="M13.755 11.9999C14.535 11.9999 15.221 12.3969 15.625 12.9999H9.50003C8.83699 12.9999 8.2011 13.2633 7.73226 13.7321C7.26342 14.201 7.00003 14.8368 7.00003 15.4999V19.4999C7.00003 19.6609 7.01503 19.8199 7.04503 19.9719C4.10603 19.7859 1.90903 18.7219 0.515028 16.7649C0.182799 16.299 0.00416931 15.7411 0.00402832 15.1689V14.2489C0.00402832 13.6524 0.240976 13.0804 0.662745 12.6586C1.08451 12.2368 1.65656 11.9999 2.25303 11.9999H13.755ZM8.00003 0.00488281C8.65664 0.0048828 9.30682 0.134211 9.91344 0.385485C10.5201 0.636758 11.0713 1.00506 11.5356 1.46935C11.9999 1.93364 12.3682 2.48484 12.6194 3.09147C12.8707 3.69809 13 4.34827 13 5.00488C13 5.66149 12.8707 6.31167 12.6194 6.9183C12.3682 7.52493 11.9999 8.07612 11.5356 8.54042C11.0713 9.00471 10.5201 9.37301 9.91344 9.62428C9.30682 9.87555 8.65664 10.0049 8.00003 10.0049C6.67395 10.0049 5.40218 9.4781 4.46449 8.54042C3.52681 7.60273 3.00003 6.33097 3.00003 5.00488C3.00003 3.6788 3.52681 2.40703 4.46449 1.46935C5.40218 0.531667 6.67395 0.00488281 8.00003 0.00488281ZM8.00003 15.4999C8.00003 15.1021 8.15806 14.7205 8.43937 14.4392C8.72067 14.1579 9.1022 13.9999 9.50003 13.9999H17.5C17.8979 13.9999 18.2794 14.1579 18.5607 14.4392C18.842 14.7205 19 15.1021 19 15.4999V19.4999C19 19.8977 18.842 20.2792 18.5607 20.5605C18.2794 20.8418 17.8979 20.9999 17.5 20.9999H9.50003C9.1022 20.9999 8.72067 20.8418 8.43937 20.5605C8.15806 20.2792 8.00003 19.8977 8.00003 19.4999V15.4999ZM18 15.9999C17.7348 15.9999 17.4805 15.8945 17.2929 15.707C17.1054 15.5195 17 15.2651 17 14.9999H16C16 15.5303 16.2107 16.039 16.5858 16.4141C16.9609 16.7892 17.4696 16.9999 18 16.9999V15.9999ZM18 17.9999C17.4696 17.9999 16.9609 18.2106 16.5858 18.5857C16.2107 18.9607 16 19.4694 16 19.9999H17C17 19.7347 17.1054 19.4803 17.2929 19.2928C17.4805 19.1052 17.7348 18.9999 18 18.9999V17.9999ZM10 14.9999C10 15.2651 9.89467 15.5195 9.70713 15.707C9.5196 15.8945 9.26525 15.9999 9.00003 15.9999V16.9999C9.53046 16.9999 10.0392 16.7892 10.4142 16.4141C10.7893 16.039 11 15.5303 11 14.9999H10ZM11 19.9999C11 19.4694 10.7893 18.9607 10.4142 18.5857C10.0392 18.2106 9.53046 17.9999 9.00003 17.9999V18.9999C9.26525 18.9999 9.5196 19.1052 9.70713 19.2928C9.89467 19.4803 10 19.7347 10 19.9999H11ZM15.25 17.4999C15.25 17.0358 15.0657 16.5906 14.7375 16.2624C14.4093 15.9343 13.9642 15.7499 13.5 15.7499C13.0359 15.7499 12.5908 15.9343 12.2626 16.2624C11.9344 16.5906 11.75 17.0358 11.75 17.4999C11.75 17.964 11.9344 18.4091 12.2626 18.7373C12.5908 19.0655 13.0359 19.2499 13.5 19.2499C13.9642 19.2499 14.4093 19.0655 14.7375 18.7373C15.0657 18.4091 15.25 17.964 15.25 17.4999Z" fill="#FAFAFA"/>
</svg>
