<svg width="16" height="22" viewBox="0 0 16 22" fill="none" xmlns="http://www.w3.org/2000/svg">
<path d="M11.125 12.7187H9.95308V11.8037C11.1198 11.1273 11.9062 9.86472 11.9062 8.42183V3.53901C11.9062 2.13897 10.7672 0.999951 9.36714 0.999951H3.11714C2.79355 0.999951 2.5312 1.2623 2.5312 1.58589V3.53901C2.5312 4.52054 3.19304 5.3498 4.0937 5.60558V8.42183C4.0937 9.86472 4.88015 11.1273 6.04683 11.8037V12.7187H4.87495C2.39796 12.7187 0.382764 14.7339 0.382764 17.2109V20.414C0.382764 20.7376 0.645108 21 0.968701 21H15.0312C15.3548 21 15.6171 20.7376 15.6171 20.414V17.2109C15.6171 14.7339 13.6019 12.7187 11.125 12.7187ZM3.70308 3.53901V2.17183H9.36714C10.121 2.17183 10.7343 2.78515 10.7343 3.53901V4.51558H4.67964C4.14116 4.51558 3.70308 4.07749 3.70308 3.53901ZM5.26558 5.68745H10.7343V8.42183C10.7343 9.92956 9.50769 11.1562 7.99995 11.1562C6.49222 11.1562 5.26558 9.92956 5.26558 8.42183V5.68745ZM7.99995 12.3281C8.26741 12.3281 8.5287 12.301 8.7812 12.2495V13.3046C8.7812 13.6282 9.04354 13.8906 9.36714 13.8906H9.82015L7.99995 15.9383L6.17976 13.8906H6.63276C6.95636 13.8906 7.2187 13.6282 7.2187 13.3046V12.2495C7.4712 12.301 7.73249 12.3281 7.99995 12.3281ZM1.55464 17.2109C1.55464 15.4655 2.90866 14.0314 4.62132 13.9012L7.21601 16.8203L4.54241 19.8281H1.55464V17.2109ZM14.4453 19.8281H6.1103L11.3786 13.9012C13.0912 14.0314 14.4453 15.4655 14.4453 17.2109V19.8281Z" fill="#F8F8F8"/>
<path fill-rule="evenodd" clip-rule="evenodd" d="M10.2531 12.4187H11.125C13.7676 12.4187 15.9171 14.5682 15.9171 17.2109V20.414C15.9171 20.9033 15.5205 21.2999 15.0312 21.2999H0.968701C0.479422 21.2999 0.0827637 20.9033 0.0827637 20.414V17.2109C0.0827637 14.5682 2.23227 12.4187 4.87495 12.4187H5.74683V11.9723C4.5744 11.2258 3.7937 9.91382 3.7937 8.42183V5.82093C2.88074 5.4654 2.2312 4.57769 2.2312 3.53901V1.58589C2.2312 1.09661 2.62786 0.699951 3.11714 0.699951H9.36714C10.9329 0.699951 12.2062 1.97329 12.2062 3.53901V8.42183C12.2062 9.91382 11.4255 11.2258 10.2531 11.9723V12.4187ZM9.95308 11.8037C11.1198 11.1273 11.9062 9.86472 11.9062 8.42183V3.53901C11.9062 2.13897 10.7672 0.999951 9.36714 0.999951H3.11714C2.79355 0.999951 2.5312 1.2623 2.5312 1.58589V3.53901C2.5312 4.52054 3.19304 5.3498 4.0937 5.60558V8.42183C4.0937 9.86472 4.88015 11.1273 6.04683 11.8037V12.7187H4.87495C2.39796 12.7187 0.382764 14.7339 0.382764 17.2109V20.414C0.382764 20.7376 0.645108 21 0.968701 21H15.0312C15.3548 21 15.6171 20.7376 15.6171 20.414V17.2109C15.6171 14.7339 13.6019 12.7187 11.125 12.7187H9.95308V11.8037ZM4.00308 2.47183V3.53901C4.00308 3.9118 4.30685 4.21558 4.67964 4.21558H10.4343V3.53901C10.4343 2.95083 9.95532 2.47183 9.36714 2.47183H4.00308ZM10.4343 5.98745H5.56558V8.42183C5.56558 9.76388 6.6579 10.8562 7.99995 10.8562C9.342 10.8562 10.4343 9.76388 10.4343 8.42183V5.98745ZM8.4812 12.6007C8.32318 12.6188 8.16258 12.6281 7.99995 12.6281C7.83732 12.6281 7.67673 12.6188 7.5187 12.6007V13.3046C7.5187 13.7267 7.22361 14.0798 6.82852 14.1689L7.99995 15.4867L9.17139 14.1689C8.77629 14.0798 8.4812 13.7267 8.4812 13.3046V12.6007ZM8.4812 12.2985C8.32347 12.318 8.16286 12.3281 7.99995 12.3281C7.83705 12.3281 7.67643 12.318 7.5187 12.2985C7.41746 12.286 7.31741 12.2696 7.2187 12.2495V13.3046C7.2187 13.6282 6.95636 13.8906 6.63276 13.8906H6.17976L7.99995 15.9383L9.82015 13.8906H9.36714C9.04354 13.8906 8.7812 13.6282 8.7812 13.3046V12.2495C8.68249 12.2696 8.58244 12.286 8.4812 12.2985ZM4.49878 14.2149C3.01046 14.4007 1.85464 15.6735 1.85464 17.2109V19.5281H4.40769L6.81462 16.8203L4.49878 14.2149ZM4.62132 13.9012C2.90866 14.0314 1.55464 15.4655 1.55464 17.2109V19.8281H4.54241L7.21601 16.8203L4.62132 13.9012ZM6.77835 19.5281H14.1453V17.2109C14.1453 15.6735 12.9894 14.4007 11.5011 14.2149L6.77835 19.5281ZM6.1103 19.8281L11.3786 13.9012C13.0912 14.0314 14.4453 15.4655 14.4453 17.2109V19.8281H6.1103ZM3.70308 3.53901C3.70308 4.07749 4.14116 4.51558 4.67964 4.51558H10.7343V3.53901C10.7343 2.78515 10.121 2.17183 9.36714 2.17183H3.70308V3.53901ZM5.26558 5.68745V8.42183C5.26558 9.92956 6.49222 11.1562 7.99995 11.1562C9.50769 11.1562 10.7343 9.92956 10.7343 8.42183V5.68745H5.26558Z" fill="#F8F8F8"/>
</svg>
