<svg width="16" height="16" viewBox="0 0 16 16" fill="none" xmlns="http://www.w3.org/2000/svg">
<path d="M14.5479 3.55382C12.2629 0.0213675 7.59765 -1.02882 3.97972 1.16703C0.457012 3.36287 -0.68549 8.13645 1.59951 11.6689L1.78993 11.9553L1.02826 14.8195L3.88452 14.0557L4.17014 14.2466C5.40785 14.9149 6.74077 15.2968 8.07369 15.2968C9.50182 15.2968 10.9299 14.9149 12.1677 14.1512C15.6904 11.8598 16.7377 7.18173 14.5479 3.55382ZM12.5485 10.9051C12.1677 11.478 11.6916 11.8598 11.0252 11.9553C10.6443 11.9553 10.1683 12.1463 8.26411 11.3825C6.64556 10.6187 5.31264 9.37758 4.36056 7.94551C3.78931 7.27721 3.50368 6.41796 3.40847 5.55872C3.40847 4.79495 3.6941 4.12665 4.17014 3.64929C4.36056 3.45834 4.55098 3.36287 4.74139 3.36287H5.21744C5.40785 3.36287 5.59827 3.36287 5.69348 3.74476C5.88389 4.22212 6.35994 5.36777 6.35994 5.46325C6.45515 5.55872 6.45515 5.74966 6.35994 5.84513C6.45515 6.03608 6.35994 6.22702 6.26473 6.32249C6.16952 6.41796 6.07431 6.60891 5.9791 6.70438C5.78869 6.79985 5.69348 6.99079 5.78869 7.18173C6.16952 7.75456 6.64556 8.32739 7.1216 8.80475C7.69286 9.28211 8.26411 9.66399 8.93056 9.95041C9.12098 10.0459 9.3114 10.0459 9.40661 9.85494C9.50182 9.664 9.97786 9.18664 10.1683 8.99569C10.3587 8.80475 10.4539 8.80475 10.6443 8.90022L12.1677 9.664C12.3581 9.75947 12.5485 9.85494 12.6437 9.95041C12.7389 10.2368 12.7389 10.6187 12.5485 10.9051Z" fill="#FAFAFA"/>
</svg>
